# Blender v2.82 (sub 7) OBJ File: 'bat.blend'
# www.blender.org
mtllib bat.mtl
o Cube
v 0.329977 -0.309880 0.341396
v -0.329977 0.350074 0.341396
v -0.329977 -0.309880 0.341396
v -0.402287 0.020097 0.413706
v -0.402287 0.020097 -0.390868
v 0.592787 0.909939 0.011419
v 0.554036 0.020097 0.011419
v 0.335653 -0.335653 -2.562814
v 0.575319 0.575319 -2.203729
v -0.575319 0.575319 -2.203729
v -0.701392 0.000000 -2.329802
v -0.335653 -0.335653 -2.562814
v 0.335653 0.335653 -2.562814
v -0.335653 0.335653 -2.562814
v -0.409207 0.000000 -2.636368
v -3.010278 1.232026 -0.404103
v -3.024008 1.169371 -0.417833
v -3.035514 1.169371 -0.540840
v -3.019716 1.241465 -0.525042
v -1.339226 0.584686 -0.513701
v -1.721511 0.546213 -1.837517
v -1.633714 0.946865 -1.749720
v -1.277578 0.866013 -0.452052
v -0.329977 0.350074 -0.318558
v -0.329977 -0.309880 -0.318558
v 0.329977 0.350074 -0.318558
v 0.329977 -0.309880 -0.318558
v 0.329977 0.350074 0.341396
v 0.402287 -0.382190 0.011419
v 0.000000 -0.382190 -0.390868
v 0.402287 0.020097 0.413706
v 0.402287 0.020097 -0.390868
v 0.000000 0.422384 0.413706
v -0.592787 0.909939 0.011419
v 0.000000 -0.382190 0.413706
v 0.000000 0.422384 -0.390868
v -0.402287 -0.382190 0.011419
v 0.000000 0.574133 0.011419
v 0.000000 0.020097 0.565454
v 0.000000 -0.533938 0.011419
v -0.554036 0.020097 0.011419
v -0.575319 -0.575319 -1.465114
v 0.000000 -0.701392 -1.591187
v 0.575319 -0.575319 -1.465114
v 0.701392 0.000000 -2.329802
v 0.000000 0.701392 -1.591187
v 0.000000 -0.409206 -2.636368
v 0.409207 0.000000 -2.636368
v 0.000000 0.409206 -2.636368
v 0.000000 0.000000 -2.884313
v 3.010278 1.232026 -0.404103
v 3.024008 1.169371 -0.417833
v 3.035514 1.169371 -0.540840
v 3.019716 1.241465 -0.525042
v 1.339226 0.584686 -0.513701
v 1.721511 0.546213 -1.837517
v 1.633714 0.946865 -1.749720
v 1.277578 0.866013 -0.452052
vt 0.666667 0.458333
vt 0.755208 0.494792
vt 0.751736 0.625000
vt 0.631945 0.625000
vt 0.755208 0.755208
vt 0.666667 0.791667
vt 0.333333 0.791667
vt 0.500000 0.756944
vt 0.500000 0.876736
vt 0.369792 0.880208
vt 0.630208 0.880208
vt 0.625000 1.000000
vt 0.500000 1.000000
vt 0.375000 1.000000
vt 0.375000 0.000000
vt 0.500000 0.000000
vt 0.500000 0.125000
vt 0.375000 0.125000
vt 0.500000 0.250000
vt 0.375000 0.250000
vt 0.248264 0.625000
vt 0.368056 0.625000
vt 0.244792 0.755208
vt 0.125000 0.625000
vt 0.125000 0.750000
vt 0.333333 0.458333
vt 0.500000 0.493056
vt 0.500000 0.625000
vt 0.500000 0.250000
vt 0.500000 0.250000
vt 0.500000 0.250000
vt 0.500000 0.250000
vt 0.666667 0.458333
vt 0.755208 0.494792
vt 0.333333 0.458333
vt 0.244792 0.494792
vt 0.244792 0.494792
vt 0.333333 0.458333
vt 0.500000 0.493056
vt 0.500000 0.493056
vt 0.666667 0.458333
vt 0.500000 0.250000
vt 0.625000 0.250000
vt 0.625000 0.250000
vt 0.500000 0.250000
vt 0.875000 0.500000
vt 0.755208 0.494792
vt 0.875000 0.500000
vt 0.375000 0.250000
vt 0.875000 0.500000
vt 0.375000 0.250000
vt 0.500000 0.373264
vt 0.369792 0.369792
vt 0.630208 0.369792
vt 0.125000 0.500000
vt 0.125000 0.500000
vt 0.625000 0.250000
vt 0.625000 0.250000
vt 0.875000 0.500000
vt 0.875000 0.500000
vt 0.875000 0.500000
vt 0.875000 0.500000
vt 0.625000 0.250000
vt 0.625000 0.250000
vt 0.625000 0.250000
vt 0.666667 0.458333
vt 0.631945 0.625000
vt 0.666667 0.791667
vt 0.500000 1.000000
vt 0.625000 1.000000
vt 0.125000 0.500000
vt 0.125000 0.625000
vt 0.244792 0.494792
vt 0.368056 0.625000
vt 0.333333 0.458333
vt 0.500000 0.493056
vt 0.500000 0.625000
vt 0.500000 0.756944
vt 0.333333 0.458333
vt 0.500000 0.250000
vt 0.500000 0.250000
vt 0.500000 0.250000
vt 0.500000 0.250000
vt 0.375000 0.250000
vt 0.375000 0.250000
vt 0.500000 0.250000
vt 0.500000 0.250000
vt 0.125000 0.500000
vt 0.625000 0.250000
vt 0.625000 0.250000
vt 0.875000 0.500000
vt 0.875000 0.500000
vt 0.875000 0.500000
vt 0.875000 0.500000
vt 0.625000 0.250000
vt 0.625000 0.250000
vt 0.625000 0.250000
vt 0.625000 0.250000
vt 0.875000 0.500000
vt 0.875000 0.500000
vn -0.1586 0.7359 -0.6583
vn -0.1586 0.7359 0.6583
vn 0.3061 -0.3061 0.9015
vn -0.3061 0.3061 0.9015
vn -0.3061 -0.3061 0.9015
vn -0.9015 -0.3061 0.3061
vn -0.9015 -0.3061 -0.3061
vn 0.3061 -0.9015 0.3061
vn -0.3061 -0.9015 0.3061
vn 0.9015 -0.3061 -0.3061
vn 0.8505 0.0544 -0.5231
vn 0.8505 0.0544 0.5231
vn 0.9015 -0.3061 0.3061
vn -0.3254 -0.9387 0.1135
vn 0.3105 0.9339 0.1773
vn 0.2607 -0.9298 -0.2599
vn 0.6915 0.2959 -0.6590
vn -0.6915 0.2959 -0.6590
vn 0.0042 0.9354 -0.3536
vn -0.9837 -0.0328 0.1766
vn -0.3105 0.9339 0.1773
vn -0.3965 -0.3965 -0.8280
vn -0.3965 0.3965 -0.8280
vn 0.3965 0.3965 -0.8280
vn 0.3965 -0.3965 -0.8280
vn -0.0042 0.9354 -0.3536
vn -0.7451 -0.5507 -0.3762
vn 0.7451 -0.5507 -0.3762
vn -0.2607 -0.9298 -0.2599
vn -0.9767 0.1940 0.0914
vn 0.2103 0.9776 0.0080
vn -0.0174 -0.2104 0.9775
vn -0.5969 0.2944 -0.7464
vn -0.2995 0.2664 -0.9162
vn -0.2234 -0.1617 0.9612
vn 0.4061 0.9138 0.0111
vn -0.4739 -0.8731 0.1146
vn 0.1586 0.7359 -0.6583
vn 0.1586 0.7359 0.6583
vn 0.3061 0.3061 0.9015
vn 0.3061 -0.9015 -0.3061
vn -0.3061 -0.9015 -0.3061
vn -0.8505 0.0544 -0.5231
vn -0.8505 0.0544 0.5231
vn -0.1536 -0.9549 0.2539
vn 0.3254 -0.9387 0.1135
vn 0.9837 -0.0328 0.1766
vn 0.1536 -0.9549 0.2539
vn 0.9767 0.1940 0.0914
vn -0.2103 0.9776 0.0080
vn 0.0174 -0.2104 0.9775
vn 0.5969 0.2944 -0.7464
vn 0.2995 0.2664 -0.9162
vn 0.2234 -0.1617 0.9612
vn -0.4061 0.9138 0.0111
vn 0.4739 -0.8731 0.1146
usemtl Material
s off
f 26/1/1 36/2/1 38/3/1 6/4/1
f 6/4/2 38/3/2 33/5/2 28/6/2
f 1/7/3 31/8/3 39/9/3 35/10/3
f 39/9/4 33/11/4 2/12/4 4/13/4
f 35/10/5 39/9/5 4/13/5 3/14/5
f 3/15/6 4/16/6 41/17/6 37/18/6
f 37/18/7 41/17/7 5/19/7 25/20/7
f 40/21/8 29/22/8 1/7/8 35/23/8
f 37/24/9 40/21/9 35/23/9 3/25/9
f 27/26/10 32/27/10 7/28/10 29/22/10
f 32/27/11 26/1/11 6/4/11 7/28/11
f 7/28/12 6/4/12 28/6/12 31/8/12
f 29/22/13 7/28/13 31/8/13 1/7/13
f 21/29/14 20/30/14 17/31/14 18/32/14
f 36/2/15 26/1/15 9/33/15 46/34/15
f 44/35/16 43/36/16 47/37/16 8/38/16
f 9/33/17 45/39/17 48/40/17 13/41/17
f 11/42/18 10/43/18 14/44/18 15/45/18
f 10/46/19 46/34/19 49/47/19 14/48/19
f 25/20/20 5/19/20 11/42/20 42/49/20
f 24/50/21 36/2/21 46/34/21 10/46/21
f 12/51/22 15/45/22 50/52/22 47/53/22
f 15/45/23 14/44/23 49/54/23 50/52/23
f 50/52/24 49/54/24 13/41/24 48/40/24
f 47/53/25 50/52/25 48/40/25 8/38/25
f 46/34/26 9/33/26 13/41/26 49/47/26
f 42/49/27 11/42/27 15/45/27 12/51/27
f 45/39/28 44/35/28 8/38/28 48/40/28
f 43/36/29 42/55/29 12/56/29 47/37/29
f 17/31/30 16/57/30 19/58/30 18/32/30
f 23/59/31 22/60/31 19/61/31 16/62/31
f 20/30/32 23/63/32 16/57/32 17/31/32
f 22/64/33 21/29/33 18/32/33 19/58/33
f 10/43/34 11/42/34 21/29/34 22/64/34
f 5/19/35 24/65/35 23/63/35 20/30/35
f 24/50/36 10/46/36 22/60/36 23/59/36
f 11/42/37 5/19/37 20/30/37 21/29/37
f 24/66/38 34/67/38 38/3/38 36/2/38
f 34/67/39 2/68/39 33/5/39 38/3/39
f 39/9/40 31/69/40 28/70/40 33/11/40
f 27/71/41 29/72/41 40/21/41 30/73/41
f 30/73/42 40/21/42 37/74/42 25/75/42
f 5/76/43 41/77/43 34/67/43 24/66/43
f 41/77/44 4/78/44 2/68/44 34/67/44
f 25/75/45 42/79/45 43/36/45 30/73/45
f 56/80/46 53/81/46 52/82/46 55/83/46
f 27/84/47 44/85/47 45/86/47 32/87/47
f 30/73/48 43/36/48 44/88/48 27/71/48
f 52/82/49 53/81/49 54/89/49 51/90/49
f 58/91/50 51/92/50 54/93/50 57/94/50
f 55/83/51 52/82/51 51/90/51 58/95/51
f 57/96/52 54/89/52 53/81/52 56/80/52
f 9/97/53 57/96/53 56/80/53 45/86/53
f 32/87/54 55/83/54 58/95/54 26/98/54
f 26/99/55 58/91/55 57/94/55 9/100/55
f 45/86/56 56/80/56 55/83/56 32/87/56
